<?xml version="1.0" encoding="UTF-8"?>
<svg width="1167px" height="321px" viewBox="0 0 1167 321" version="1.1" xmlns="http://www.w3.org/2000/svg" xmlns:xlink="http://www.w3.org/1999/xlink">
    <!-- Generator: Sketch 41.2 (35397) - http://www.bohemiancoding.com/sketch -->
    <title>Logo</title>
    <desc>Created with Sketch.</desc>
    <defs></defs>
    <g id="Page-1" stroke="none" stroke-width="1" fill="none" fill-rule="evenodd">
        <g id="Logo" fill="#000000">
            <g id="Logo-name" transform="translate(758.500000, 160.500000) scale(-1, 1) rotate(-180.000000) translate(-758.500000, -160.500000) translate(350.000000, 92.000000)">
                <path d="M293.4,136 C288.2,135.1 285.6,133.3 283.8,129.4 C282.1,125.6 281.9,121.6 281.9,68.5 C281.9,8 281.9,7.7 286.8,3.4 C289.7,0.8 297.7,0.1 301.7,2.2 C308.1,5.5 307.9,3.7 307.9,68.3 C307.9,129.9 307.9,130.1 303.5,133.7 C301.6,135.3 296.1,136.5 293.4,136 Z" id="Shape"></path>
                <path d="M349.2,128.3 C343.7,125.9 342.5,122.8 341.9,109.3 L341.4,97.3 L337.3,96.8 C328.8,95.6 324.8,89.7 327,81.6 C328.2,77.1 331.5,74.6 337.3,73.8 L341.4,73.3 L341.9,41.3 C342.3,18.4 342.8,8.7 343.6,7.1 C348.5,-1.4 361.3,-1.4 366.2,7.1 C367,8.7 367.5,18.4 367.9,41.3 L368.4,73.3 L372.9,73.6 C379.8,74 381.9,74.7 384.5,77.5 C386.4,79.5 386.9,81.2 386.9,85.3 C386.9,89.4 386.4,91.1 384.5,93.1 C381.9,95.9 379.8,96.6 372.9,97 L368.4,97.3 L367.9,109.4 C367.3,123 366.1,126 360.4,128.4 C356.2,130.1 353.3,130.1 349.2,128.3 Z" id="Shape"></path>
                <path d="M769.5,98.7 C758.9,97.1 749.5,90.7 745.3,82 C742.6,76.4 742.2,66.1 744.7,60.6 C749.2,50.4 755.4,46.2 774.5,40.8 C782.1,38.6 786.1,36.9 787.7,35.1 C790.6,32 790.5,31.2 787,27.7 C784.7,25.4 783.2,24.8 779.9,24.8 C775,24.8 773.3,25.6 765.4,31.8 C756.9,38.5 753.3,40.1 748.7,39.5 C738.4,38.1 734.4,25 741.6,16 C759,-5.6 799.6,-4.9 812.3,17.2 C815.8,23.2 817.2,31.5 816,38.2 C814.7,45.1 813,48.4 808.7,52.4 C804.1,56.8 799.3,59 785.9,62.9 C773.7,66.4 769.5,69.1 770.1,73 C770.3,74.2 771.6,75.9 773.1,76.7 C775.6,78.1 776.2,78 785.1,73.5 C790.2,70.9 795.8,68.8 797.4,68.8 C804.3,68.8 810.7,76 809.4,82.4 C807.4,93.6 788,101.5 769.5,98.7 Z" id="Shape"></path>
                <path d="M28.1,96.9 C16.7,93 7.2,83.9 2.6,72.5 C0.6,67.7 0.4,65 0.1,40.3 C-0.1,19.9 0.1,12.3 1.1,9.3 C4.5,-0.8 19.5,-2.3 24.6,7.1 C26.2,9.8 26.5,14.1 27,37.3 C27.3,52.2 27.6,64.4 27.7,64.5 C27.8,64.6 29.3,66.3 31,68.3 C38.6,77 52,74.1 55.8,62.9 C56.5,60.8 56.9,50.7 57,35.9 C57,20.4 57.4,11.1 58.2,8.8 C61.5,-0.9 76.7,-2 81.6,7.1 C83.2,9.8 83.5,14 83.9,36.3 C84.5,65.1 84.7,66.4 90.9,70.6 C93.8,72.6 95.3,72.9 99.7,72.6 C104,72.2 105.6,71.5 108.4,68.8 C113.2,64.2 113.9,59.5 113.9,33.2 C113.9,8.3 114.4,5.7 119.8,2.5 C123.9,0.1 131,0.3 134.3,2.9 C139.7,7.1 139.9,8.5 139.9,37.2 C139.9,60 139.6,64.4 138.1,69.5 C134.5,81 127,89.6 116.1,95 C110.4,97.8 108.3,98.3 100,98.6 C89.3,99 83.1,97.4 74.7,91.8 L70.2,88.8 L64.3,92.3 C61,94.3 56.2,96.5 53.5,97.3 C46.6,99.4 34.6,99.2 28.1,96.9 Z" id="Shape"></path>
                <path d="M175.2,97.4 C173.4,96.6 171,94.4 169.9,92.6 C167.9,89.4 167.8,88.1 168.1,60.8 C168.5,27 169,25.1 179,14.4 C199,-7.1 232.7,-3.8 247.7,21 C252.8,29.6 253.9,36.9 253.9,63.8 C253.9,84.5 253.6,87.8 252,91.4 C248.8,98.4 240.2,100.9 233.8,96.5 C228.2,92.7 227.9,91.4 227.9,68.2 C227.9,39.1 226.8,34.4 218.9,29.1 C210.5,23.3 197.9,28.7 195,39.3 C194.4,41.6 193.9,52.7 193.9,65.6 C193.9,89.8 193.3,93.2 188.5,96.3 C185,98.6 179,99.1 175.2,97.4 Z" id="Shape"></path>
                <path d="M409.9,97 C403.4,93.8 402.9,91.5 402.9,63.6 C402.9,29.9 404.3,24.3 415.4,13.3 C432.9,-4.1 458.8,-4.4 476,12.8 C487.3,24 488.9,30.4 488.9,63.8 C488.9,91.3 488.5,93.4 481.8,97 C477.7,99.2 475,99.3 470.4,97.4 C463.8,94.6 463.5,93.3 462.9,64.8 C462.4,40.3 462.3,39.1 460,35.2 C458.7,32.9 456,30.1 453.9,28.9 C446.1,24.5 436.3,27.3 431.8,35.2 C429.5,39.1 429.4,40.3 428.9,64.8 C428.3,93.3 428,94.6 421.4,97.4 C416.9,99.2 414.1,99.2 409.9,97 Z" id="Shape"></path>
                <path d="M545.3,96.9 C532.2,92.1 522.3,81.7 518.5,68.9 C517.2,64.5 516.9,58.2 516.9,36.6 C516.9,6.9 517.2,5.3 523.1,2.2 C527.1,0.1 535.1,0.8 538,3.4 C542.4,7.3 542.9,10.4 542.9,35.3 C542.9,60.9 543.3,63.1 548.5,68 C551.8,71.1 555.8,72.8 559.6,72.8 C564,72.8 570.6,68.9 573.1,65 C575.3,61.5 575.4,60.2 575.9,35.8 C576.5,7.7 576.9,5.4 582.9,2.3 C589.2,-1 597.4,1.2 600.6,7.1 C602.1,9.8 602.4,13.5 602.7,31.7 C603.1,57.3 602,67 597.9,75.4 C594.1,83.2 585.9,91 577.2,95.1 C571.2,97.9 569.2,98.3 560.4,98.5 C552.6,98.7 549.3,98.3 545.3,96.9 Z" id="Shape"></path>
                <path d="M638.3,97.9 C634.7,96.3 631.1,91 630.4,86.3 C630,83.9 629.9,71.4 630.1,58.6 C630.5,38.6 630.9,34.4 632.6,29.1 C639,9.8 660.5,-2.9 680.4,0.7 C694.3,3.2 708.1,14.1 713,26.5 C715.3,32 715.4,33.6 715.7,60.8 C715.9,88.1 715.9,89.4 713.9,92.6 C711.8,96 706.7,98.8 702.8,98.8 C698.5,98.8 693.7,95.6 691.8,91.4 C690.2,87.8 689.9,84.5 689.9,63.8 C689.9,41.3 689.8,40 687.7,35.8 C684.3,29.3 681,27.3 673.4,27.3 C666.2,27.3 662.8,29.1 659.4,34.9 C657.6,38 657.4,40.6 656.9,63.8 C656.4,91.5 656.1,92.6 650.4,96.4 C647.5,98.3 641.2,99.1 638.3,97.9 Z" id="Shape"></path>
            </g>
            <path d="M145.700133,320.176609 C144.367585,319.946859 142.621488,319.48736 141.794389,319.16571 C141.013241,318.798111 110.961986,299.77484 75.0750903,276.799875 C31.9281056,249.229916 9.04504022,234.342139 7.48274258,232.825791 C4.58789696,230.022845 2.06065079,225.841402 0.865952595,221.889708 C-0.0530460143,218.948912 -0.0530460143,217.570414 0.0388538466,140.74213 L0.176703638,62.5812987 L2.15255065,58.5836547 C5.78259516,51.2776158 4.4959971,52.1506645 48.2862808,26.9241526 C70.1584478,14.3338717 88.9519693,3.81133761 91.157566,2.892339 C97.2229568,0.456992682 100.531352,-0.186306345 106.091293,0.0434433078 C109.767288,0.22724303 111.467435,0.502942613 113.213533,1.28409143 C120.841221,4.68438629 125.987613,12.4499245 128.698659,24.8104558 L129.755508,29.5892486 L129.755508,104.947135 L129.755508,180.305021 L128.28511,183.291766 C127.458011,184.945964 125.941663,187.15156 124.838865,188.208409 C120.933121,191.976303 113.075683,195.284698 106.321043,195.973947 C100.898951,196.525346 93.0874631,194.503549 87.159922,191.011354 C83.3920277,188.759808 81.5999804,186.829911 79.7160333,182.832267 L78.2915854,179.845521 L78.0618358,135.503838 C77.8320861,93.0001527 77.7861362,91.0702556 76.9590375,89.0944086 C73.9263421,82.0181193 68.2745006,77.4231262 61.1063115,76.1824781 C51.9163254,74.5282806 42.3587398,80.5936714 39.1881946,90.0134072 C38.3610959,92.4028036 38.3151459,95.0678995 38.3151459,148.140069 C38.3151459,206.772181 38.269196,205.899132 40.3369429,208.288528 C40.7504922,208.748028 42.8641891,210.356275 45.1157356,211.872623 C50.0323782,215.181018 78.1996856,232.274392 82.2432795,234.388089 L85.184075,235.904436 L104.023547,235.904436 C119.508673,235.904436 123.138718,235.766587 124.471266,235.215187 C125.344314,234.847588 130.123107,232.136542 135.0857,229.149797 C149.422078,220.55716 150.570826,220.60311 165.596453,229.655246 C171.707794,233.37719 175.383789,235.307087 176.946086,235.628737 C178.324584,235.950386 185.906323,236.134186 196.291007,236.134186 C211.454484,236.088236 213.660081,235.996336 215.681878,235.307087 C218.898373,234.158339 254.739318,212.378072 259.150512,208.885877 C259.518111,208.610178 260.20736,207.461429 260.62091,206.358631 C261.356108,204.566584 261.402058,200.063491 261.402058,150.483516 C261.402058,97.7329955 261.402058,96.4923474 260.48306,93.5515518 C259.931661,91.8054545 258.691013,89.3701082 257.496314,87.7618606 C249.087477,76.3662778 231.580554,77.4231262 224.458314,89.6917577 C221.747268,94.3327006 221.839168,92.5866033 221.517519,138.766283 L221.195869,181.224019 L219.909271,183.659365 C218.071274,187.10561 215.360228,189.632856 211.040935,191.884403 C200.74815,197.260545 190.455366,197.260545 180.530181,191.976303 C176.118987,189.586907 173.499841,187.05966 171.661844,183.291766 L170.191446,180.305021 L170.053597,106.785132 C169.915747,24.9942556 169.823847,27.8431512 172.994392,18.3774656 C175.797338,9.92267836 180.070681,4.45463663 185.906323,1.65169087 C188.939018,0.22724303 189.214718,0.181293099 195.004409,0.22724303 C200.288651,0.22724303 201.437399,0.365092821 204.883644,1.51384108 C210.719285,3.44373816 212.787032,4.59248643 253.039171,27.7972013 C279.827981,43.236378 290.764064,49.807218 292.372312,51.3235657 C295.359057,54.2184113 297.978203,58.3079552 299.081001,61.8920497 C300,64.7868953 300,66.3032431 300,141.661129 C300,192.435802 299.8162,219.132712 299.494551,220.51121 C298.713402,224.003404 295.910456,229.057897 293.15346,231.998692 C291.085713,234.204289 286.76642,237.191034 271.051544,247.208119 C260.29926,254.054659 230.753455,272.98603 205.343143,289.206356 C177.129886,307.218729 158.290414,319.027861 156.865967,319.44141 C153.925171,320.406359 148.824729,320.773958 145.700133,320.176609 Z" id="Logo-Mark" transform="translate(150.000000, 160.232973) scale(1, -1) translate(-150.000000, -160.232973) "></path>
        </g>
    </g>
</svg>